<svg width="16" height="16" viewBox="0 0 16 16" fill="none" xmlns="http://www.w3.org/2000/svg">
<path d="M1.33331 7.09226C1.33331 6.1387 1.78663 5.24194 2.55447 4.67654L7.99998 0.666656L13.4455 4.67654C14.2133 5.24194 14.6666 6.1387 14.6666 7.09225V12.8333C14.6666 14.214 13.5474 15.3333 12.1666 15.3333H11C10.4477 15.3333 9.99998 14.8856 9.99998 14.3333V10.8333C9.99998 10.5572 9.77612 10.3333 9.49998 10.3333H6.49998C6.22384 10.3333 5.99998 10.5572 5.99998 10.8333V14.3333C5.99998 14.8856 5.55226 15.3333 4.99998 15.3333H3.83331C2.4526 15.3333 1.33331 14.214 1.33331 12.8333V7.09226Z" stroke="#E3B604" stroke-linecap="round" stroke-linejoin="round"/>
</svg>
